<svg id="Capa_1" enable-background="new 0 0 512 512" height="512" viewBox="0 0 512 512" width="512" xmlns="http://www.w3.org/2000/svg"><g><path d="m492.467 303.388-187.877-187.878c-2.931-2.93-7.682-2.931-10.615 0-2.931 2.931-2.931 7.683 0 10.614l106.395 106.394-6.079 6.078c-2.931 2.931-2.931 7.683 0 10.614s7.683 2.931 10.615 0l6.078-6.078 70.87 70.87c3.143 3.143 4.874 7.322 4.874 11.767s-1.732 8.624-4.875 11.767l-124.448 124.447c-2.931 2.931-2.931 7.683 0 10.614 2.932 2.931 7.683 2.931 10.615 0l124.446-124.447c5.979-5.978 9.272-13.927 9.272-22.381 0-8.455-3.293-16.403-9.271-22.381z"/><path d="m335.064 484.325-7.791 7.791c-3.143 3.143-7.321 4.874-11.767 4.874-4.444 0-8.624-1.731-11.767-4.874l-70.87-70.87 5.624-5.624c2.931-2.931 2.931-7.683 0-10.614s-7.683-2.931-10.614 0l-5.624 5.624-148.97-148.97c-6.427-6.426-9.966-14.971-9.966-24.06v-108.99h21.579c3.027 11.908 13.838 20.744 26.675 20.744 15.175 0 27.521-12.346 27.521-27.521s-12.346-27.521-27.521-27.521c-12.308 0-22.754 8.122-26.262 19.288h-28.994c-17.118 0-31.045-13.927-31.045-31.046 0-8.292 3.229-16.088 9.093-21.952l10.825-10.826c8.699-8.698 13.49-20.264 13.49-32.566v-9.707c0-4.145-3.36-7.505-7.505-7.505s-7.505 3.36-7.505 7.505v9.706c0 8.293-3.229 16.089-9.093 21.953l-10.826 10.826c-8.699 8.699-13.49 20.265-13.49 32.566 0 22.663 16.458 41.541 38.047 45.344v109.701c0 13.099 5.101 25.413 14.363 34.674l230.453 230.454c5.978 5.978 13.927 9.271 22.381 9.271 8.455 0 16.403-3.292 22.382-9.271l7.791-7.791c2.931-2.931 2.931-7.683 0-10.614-2.933-2.931-7.685-2.93-10.614.001zm-223.492-375.001c6.898 0 12.511 5.612 12.511 12.511 0 6.898-5.612 12.511-12.511 12.511-4.449 0-8.352-2.341-10.571-5.849 3.539-.604 6.236-3.678 6.236-7.39 0-3.394-2.254-6.258-5.345-7.186 2.297-2.804 5.783-4.597 9.68-4.597z"/><path d="m49.254 82.521c-1.006 4.021 1.438 8.096 5.459 9.103 4.02 1.005 8.097-1.438 9.103-5.459 1.854-7.409 8.493-12.583 16.144-12.583h147.378c9.089 0 17.634 3.54 24.061 9.966l18.317 18.316c1.465 1.466 3.386 2.198 5.306 2.198s3.842-.733 5.307-2.198c2.931-2.931 2.931-7.683-.001-10.614l-18.316-18.316c-9.262-9.262-21.576-14.363-34.675-14.363h-147.376c-14.551 0-27.178 9.848-30.707 23.95z"/><path d="m274.592 358.296-20.437 20.436c-2.931 2.931-2.931 7.683 0 10.614s7.683 2.931 10.615 0l20.437-20.436c2.931-2.931 2.931-7.683 0-10.614s-7.682-2.932-10.615 0z"/><path d="m368.016 264.871-20.437 20.437c-2.931 2.931-2.931 7.683 0 10.614s7.683 2.931 10.615 0l20.437-20.437c2.931-2.931 2.931-7.683 0-10.614-2.931-2.93-7.682-2.931-10.615 0z"/><path d="m321.304 311.583-20.437 20.437c-2.931 2.931-2.931 7.683 0 10.614s7.683 2.931 10.615 0l20.437-20.437c2.931-2.931 2.931-7.683 0-10.614s-7.682-2.931-10.615 0z"/><path d="m189.354 314.973c3.728 1.592 8.22-.155 9.825-4.016l62.966-150.034c1.604-3.822-.194-8.221-4.016-9.825-3.821-1.604-8.221.194-9.825 4.016l-62.965 150.034c-1.605 3.823.193 8.222 4.015 9.825z"/><path d="m215.532 183.356c0-21.965-15.848-39.835-35.327-39.835s-35.327 17.87-35.327 39.835 15.848 39.836 35.327 39.836 35.327-17.87 35.327-39.836zm-35.328 24.826c-11.203 0-20.317-11.137-20.317-24.825s9.114-24.825 20.317-24.825 20.317 11.136 20.317 24.825-9.114 24.825-20.317 24.825z"/><path d="m265.243 246.102c-19.479 0-35.327 17.87-35.327 39.836 0 21.965 15.847 39.835 35.327 39.835s35.327-17.87 35.327-39.835c0-21.966-15.848-39.836-35.327-39.836zm0 64.661c-11.202 0-20.316-11.136-20.316-24.825s9.114-24.825 20.316-24.825c11.203 0 20.317 11.137 20.317 24.825s-9.114 24.825-20.317 24.825z"/><path d="m319.316 391.416c-2.931-2.931-7.682-2.932-10.615 0-2.931 2.931-2.931 7.683 0 10.614l26.362 26.362c1.466 1.466 3.386 2.198 5.307 2.198 1.92 0 3.842-.733 5.307-2.198 2.931-2.931 2.931-7.683 0-10.614z"/><path d="m330.16 369.957c-2.931 2.931-2.931 7.683 0 10.614l26.362 26.362c1.466 1.466 3.386 2.198 5.307 2.198 1.92 0 3.842-.733 5.307-2.198 2.931-2.931 2.931-7.683 0-10.614l-26.362-26.363c-2.931-2.929-7.683-2.93-10.614.001z"/><path d="m347.663 352.453c-2.931 2.931-2.931 7.683 0 10.614l26.363 26.362c1.466 1.465 3.387 2.198 5.307 2.198s3.842-.733 5.307-2.198c2.931-2.931 2.931-7.683 0-10.614l-26.363-26.362c-2.931-2.93-7.682-2.93-10.614 0z"/><path d="m412.856 358.105c1.92 0 3.842-.733 5.307-2.198 2.931-2.931 2.931-7.683 0-10.614l-26.362-26.362c-2.932-2.931-7.683-2.931-10.615 0-2.931 2.931-2.931 7.683 0 10.614l26.362 26.362c1.466 1.465 3.387 2.198 5.308 2.198z"/></g></svg>